<?xml version="1.0" encoding="UTF-8" standalone="no"?>
<!DOCTYPE svg PUBLIC "-//W3C//DTD SVG 1.1//EN" "http://www.w3.org/Graphics/SVG/1.1/DTD/svg11.dtd">
<!-- Created with Vectornator (http://vectornator.io/) -->
<svg height="100%" stroke-miterlimit="10" style="fill-rule:nonzero;clip-rule:evenodd;stroke-linecap:round;stroke-linejoin:round;" version="1.1" viewBox="0 0 1024 1024" width="100%" xml:space="preserve" xmlns="http://www.w3.org/2000/svg" xmlns:vectornator="http://vectornator.io" xmlns:xlink="http://www.w3.org/1999/xlink">
<defs>
<filter color-interpolation-filters="sRGB" filterUnits="userSpaceOnUse" height="801.723" id="Filter" width="709.848" x="179.606" y="84.4859">
<feDropShadow dx="11.0924" dy="5.90973" flood-color="#000000" flood-opacity="0.333" in="SourceGraphic" result="Shadow" stdDeviation="16.0445"/>
</filter>
<path d="M337.654 834.752L634.68 780.686L698.87 629.444L829.069 561.886L743.568 128.98L221.05 229.674L337.654 834.752Z" id="Fill"/>
<linearGradient gradientTransform="matrix(1 0 0 1 0 0)" gradientUnits="userSpaceOnUse" id="LinearGradient" x1="221.051" x2="863.704" y1="482.214" y2="482.214">
<stop offset="0.358333" stop-color="#ffd333" stop-opacity="0.3"/>
<stop offset="1" stop-color="#ffe792" stop-opacity="0.3"/>
</linearGradient>
<linearGradient gradientTransform="matrix(7.25279 3.02363 -1.15774 2.75091 -4337.64 -2451.92)" gradientUnits="userSpaceOnUse" id="LinearGradient_2" x1="720.296" x2="723.676" y1="159.593" y2="159.593">
<stop offset="0" stop-color="#000000"/>
<stop offset="0.804167" stop-color="#c0c0c0"/>
</linearGradient>
<radialGradient cx="708.563" cy="162.373" gradientTransform="matrix(2.01564 0 0 1.99656 -701.197 -186.842)" gradientUnits="userSpaceOnUse" id="RadialGradient" r="52.0372">
<stop offset="0" stop-color="#ff0000"/>
<stop offset="1" stop-color="#000000"/>
</radialGradient>
<linearGradient gradientTransform="matrix(2.01447 -0.068097 0.0687478 1.9954 -716.318 -126.678)" gradientUnits="userSpaceOnUse" id="LinearGradient_3" x1="699.196" x2="734.635" y1="133.802" y2="143.841">
<stop offset="0" stop-color="#ac0707"/>
<stop offset="1" stop-color="#ff0000"/>
</linearGradient>
<linearGradient gradientTransform="matrix(2.01564 -1.00449e-16 -2.28083e-17 1.99656 -701.197 -186.842)" gradientUnits="userSpaceOnUse" id="LinearGradient_4" x1="701.782" x2="738.811" y1="134.441" y2="134.441">
<stop offset="0" stop-color="#ff0000"/>
<stop offset="1" stop-color="#ff4c4c"/>
</linearGradient>
</defs>
<g id="Layer-2" vectornator:layerName="Layer 2">
<path d="M750.531 118.688L208.625 224.406L330.75 839.75C333.452 839.22 336.064 838.825 338.562 838.688C339.04 838.661 339.849 838.655 340.688 838.656C341.978 838.658 343.211 838.69 344.375 838.812C346.179 839.003 347.68 839.326 349 840C349.096 840.049 349.157 840.135 349.25 840.188C350.811 839.719 352.245 839.235 354.062 838.781C355.102 838.522 362.801 836.736 363.625 836.531C364.113 836.41 367.388 835.824 370.094 835.375C371.735 835.103 373.119 834.892 374.156 834.75C374.798 834.662 375.305 834.595 375.719 834.562C376.072 834.534 376.375 834.516 376.719 834.531C377.201 834.552 377.638 834.593 378.219 834.781C378.309 834.811 378.395 834.912 378.469 834.938C378.576 834.788 378.597 834.613 378.719 834.469C379.81 833.171 381.267 832.299 383.188 831.5C385.688 830.46 389.223 829.494 393.656 828.562C399.958 827.239 408.711 825.919 411.281 825.781C411.364 825.765 411.479 825.752 411.75 825.688C411.759 825.685 412.356 825.522 412.625 825.469C413.132 825.369 413.608 825.322 414.125 825.312C415.486 825.287 416.755 825.565 418.062 826.688C418.738 827.268 419.153 827.927 419.469 828.625C419.738 828.394 419.979 828.151 420.281 827.938C421.476 827.094 422.767 826.438 424.406 825.75C433.422 821.967 443.03 818.733 453.656 815.812C453.963 815.728 454.332 815.565 455.656 815C455.899 814.897 456.095 814.828 456.281 814.75C458.131 813.98 459.438 813.573 460.938 813.438C463.973 813.163 466.828 814.397 468.281 817.406C468.725 818.326 468.893 819.211 468.906 820.062C469.303 819.982 469.92 819.83 470.312 819.75C470.691 819.53 471.066 819.3 471.562 819.062C471.879 818.911 472.197 818.814 472.562 818.688C473.043 818.521 473.639 818.31 474.406 818.094C475.658 817.742 477.338 817.312 479.344 816.812C482.05 816.138 485.829 815.248 486.656 815.062C504.426 811.077 518.255 808.237 531.906 805.844C532.833 805.681 535.333 805.237 535.438 805.219C539.833 804.431 541.871 804.084 544.281 803.719C545.628 803.436 546.935 803.151 548.344 802.875C548.302 801.853 548.467 800.789 549.094 799.781C549.855 798.558 550.709 798.004 551.75 797.562C552.152 797.392 552.546 797.261 552.969 797.156C553.858 796.936 554.87 796.784 556.531 796.594C556.812 796.562 558.982 796.314 559.188 796.281C562.447 795.761 565.834 795.245 570.031 794.656C571.841 794.403 578.309 793.524 578.938 793.438C585.776 792.492 604.965 790.31 605.5 790.25C616.027 789.061 623.251 788.143 629.75 787.219C631.991 786.278 635.123 784.938 635.719 784.688C644.627 780.95 653.767 778.164 662.031 776.844C661.935 776.859 661.996 776.861 662.188 776.812C662.308 776.782 662.383 776.771 662.469 776.75C663.35 776.538 664.018 776.431 664.938 776.5C666.934 776.651 668.805 777.787 669.719 779.719C673.13 777.706 676.687 775.431 680.438 772.844C687.049 768.282 693.926 763.059 702.562 756.125C703.145 755.657 721.336 740.849 726.188 737.062C726.722 736.646 731.779 732.715 731.531 732.906C734.941 730.261 736.86 728.54 739.531 726.375C745.294 719.273 752.093 711.705 761.781 701.5C762.414 700.833 766.958 695.104 767.094 694.938C767.946 693.892 768.743 692.947 769.5 692.094C772.857 688.313 775.444 686.124 778.5 685.469C778.52 685.464 778.543 685.473 778.562 685.469C780.226 683.253 781.68 681.541 783.406 679.188C788.335 672.468 792.646 665.819 796.438 659.125C796.39 659.209 796.41 659.243 796.406 659.25C796.431 659.2 796.825 658.331 796.938 658.094C797.41 657.101 797.838 656.249 798.281 655.406C798.642 654.721 798.966 654.108 799.312 653.531C799.965 652.445 800.589 651.573 801.281 650.844C801.892 650.2 802.564 649.656 803.406 649.25C803.911 649.007 804.478 648.974 805.031 648.875C806.556 643.691 808.968 638.227 813.406 629.844C813.718 629.255 814.083 628.598 814.469 627.875C814.651 627.336 814.795 626.858 814.875 626.625C820.377 610.516 825.51 596.5 830.75 583C830.127 582.375 829.588 581.634 829.312 580.625C829.07 579.736 829.056 578.961 829.188 578.219C829.256 577.832 829.348 577.478 829.469 577.156C829.604 576.798 829.76 576.506 829.938 576.188C830.274 575.583 831.442 573.943 831.469 573.906C832.192 572.903 832.301 572.731 832.406 572.562C832.643 572.185 832.916 571.784 833.156 571.406C833.359 570.919 833.599 570.269 833.812 569.719L833.812 569.375L833.844 569.031L833.875 568.75C834.066 567.901 834.054 567.906 834.156 567.656C834.287 567.341 834.29 567.327 834.344 567.219C834.416 567.074 834.403 567.066 834.438 567C834.484 566.915 835.027 565.963 835.406 565.312C836.363 562.509 837.848 558.121 838 557.688C838.097 557.409 838.171 557.208 838.25 557L750.531 118.688Z" fill="#ffffff" fill-rule="nonzero" filter="url(#Filter)" stroke="none" vectornator:layerName="Curve 7" vectornator:shadowAngle="0.48952" vectornator:shadowColor="#000000" vectornator:shadowOffset="12.5685" vectornator:shadowOpacity="0.333" vectornator:shadowRadius="32.089"/>
<g opacity="1" vectornator:layerName="Rectangle 1">
<use fill="#ffd335" fill-rule="nonzero" stroke="none" xlink:href="#Fill"/>
<mask height="725.772" id="StrokeMask" maskUnits="userSpaceOnUse" width="628.019" x="211.05" y="118.98">
<rect fill="#ffffff" height="725.772" stroke="none" width="628.019" x="211.05" y="118.98"/>
<use fill="#000000" fill-rule="evenodd" stroke="none" xlink:href="#Fill"/>
</mask>
<use fill="none" mask="url(#StrokeMask)" stroke="#ffcc17" stroke-linecap="butt" stroke-linejoin="round" stroke-width="20" xlink:href="#Fill"/>
</g>
<path d="M714.874 639.673C714.139 639.305 711.02 646.583 711.674 647.237C711.893 647.455 716.9 643.753 717.347 643.455C719.593 641.957 723.327 642.273 725.929 641.564C731.516 640.04 737.177 637.557 742.656 635.6C752.397 632.121 763.189 630.167 773.202 627.164C786.703 623.113 798.8 616.111 809.857 607.818C813.487 605.096 816.315 601.949 819.748 598.945C820.831 597.997 822.299 596.936 823.094 595.745C823.422 595.253 823.693 593.872 824.112 594.291C824.765 594.944 821.261 599.221 820.766 599.963C817.296 605.169 812.609 611.822 810.148 617.564C803.617 632.803 792.903 646.2 782.22 659.019C778.683 663.263 775.789 668.359 771.893 672.255C770.446 673.702 768.998 675.479 767.966 677.201C767.716 677.616 767.093 678.364 767.093 678.364C767.093 678.364 768.833 674.911 769.857 673.273C771.93 669.956 773.661 666.26 775.966 663.091C782.728 653.793 790.023 644.898 797.493 636.182C801.396 631.629 805.212 626.718 809.421 622.509C809.529 622.401 810.082 621.857 810.293 621.927C811.118 622.202 807.517 628.262 807.239 628.764C803.35 635.763 797.626 641.197 793.566 647.964C786.142 660.337 775.003 671.52 765.784 682.582C764.715 683.865 757.385 692.402 756.184 691.601C754.523 690.494 762.908 675.016 764.038 672.982C772.19 658.31 782.041 645.308 795.457 634.873C797.837 633.021 811.748 623.004 811.748 620.182C811.748 619.144 810.056 621.389 809.275 622.073C807.767 623.393 806.102 624.838 804.475 626C799.932 629.245 795.821 633.032 791.675 636.764C780.985 646.385 770.613 657.046 760.984 667.746C760.301 668.504 750.922 678.219 750.511 678.219C749.506 678.219 751.695 673.815 751.82 673.564C754.135 668.935 756.858 664.617 759.966 660.473C768.948 648.496 778.872 638.512 789.348 628.036C792.75 624.634 797.709 621.31 802.002 619.164C803.482 618.424 804.939 617.547 806.366 616.691C806.57 616.569 808.548 615.658 808.548 615.673C808.548 615.86 796.386 622.983 795.748 623.382C782.397 631.726 767.273 636.219 754.293 645.491C744.31 652.621 735.209 660.939 726.656 669.491C723.445 672.703 720.11 677.395 717.783 681.273C717.402 681.908 717.281 683.495 716.62 683.164C715.604 682.656 717.368 676.41 717.492 675.746C718.814 668.697 719.663 662.11 718.947 654.946C718.866 654.134 719.899 646.053 719.238 646.218C717.044 646.767 716.657 653.742 716.329 655.382C714.381 665.118 710.656 674.768 710.656 684.91C710.656 688.796 708.503 692.24 708.038 695.964C707.886 697.176 707.551 698.395 707.31 699.601C707.185 700.226 706.568 701.943 707.019 701.492C710.341 698.17 710.255 689.313 711.238 685.055C712.517 679.512 714.662 674.266 716.038 668.764C717.156 664.293 717.468 659.838 719.383 655.528C720.106 653.9 724.219 643.355 725.783 643.746C727.323 644.131 727.529 648.834 727.383 650C726.592 656.327 723.54 662.493 722.147 668.764C721.76 670.506 720.951 672.087 720.256 673.71C719.947 674.43 718.6 675.891 719.383 675.891C720.099 675.891 720.105 674.652 720.401 674.001C722.911 668.48 724.913 662.545 727.965 657.273C732.979 648.613 742.961 642.541 751.529 637.927C752.261 637.533 759.19 633.952 759.675 634.436C759.724 634.485 758.924 635.133 758.802 635.164C756.152 635.826 753.422 636.945 750.656 637.636C750.359 637.711 750.081 637.853 749.784 637.927C743.29 639.551 737.27 641.888 732.038 646.073C727.768 649.489 725.982 657.924 723.892 662.8C718.65 675.032 712.855 686.996 708.183 699.455C707.492 701.299 702.031 715.122 702.947 716.037C704.504 717.595 706.304 712.447 706.583 711.819C709.415 705.448 712.491 699.994 716.62 694.364C730.051 676.049 745.149 661.64 762.293 646.946C767.032 642.883 772.001 639.11 777.566 636.327C777.707 636.257 778.265 635.863 778.438 636.036C778.737 636.335 777.826 637.085 777.711 637.2C775.33 639.581 772.69 641.94 770.438 644.473C769.34 645.709 768.102 646.81 766.947 647.964C753.914 660.997 741.485 674.735 728.401 687.819C721.762 694.459 718.581 702.804 713.129 710.074C711.484 712.266 710.168 714.717 708.765 717.056C708.289 717.849 708.027 718.767 707.456 719.528C707.375 719.636 706.452 720.882 706.438 720.837C706.007 719.545 713.422 710.944 714.438 709.928C723.582 700.784 734.484 694.497 744.111 686.073C748.461 682.267 752.828 678.374 756.911 674.291C758.186 673.016 759.841 672.093 761.275 670.946C762.08 670.302 763.602 667.879 763.602 668.91C763.602 670.899 756.124 675.02 754.729 676.182C745.462 683.905 735.38 690.188 728.111 700.183C722.949 707.28 717.632 714.126 712.983 721.565C712.421 722.464 709.624 729.274 708.765 729.274C708.049 729.274 709.463 728.023 709.783 727.383C710.486 725.978 711.178 724.542 711.965 723.165C714.192 719.267 716.703 715.651 719.674 712.256C728.113 702.611 738.686 694.35 748.765 686.51C749.575 685.88 757.016 679.633 758.22 680.837C758.404 681.021 757.89 681.577 757.784 681.71C755.784 684.209 753.205 685.987 751.093 688.401C743.992 696.516 736.249 704.408 728.692 711.965C726.271 714.386 724.061 717.218 722.001 719.965C721.922 720.071 721.038 721.037 721.129 721.128C721.201 721.2 725.823 716.617 726.365 716.183C729.368 713.78 733.256 712.321 736.402 710.074C749.588 700.655 760.675 688.246 773.057 677.928C774.436 676.778 784.024 667.746 784.548 667.746C785.275 667.746 783.675 668.91 783.239 669.491C782.65 670.277 782.1 671.06 781.493 671.819C779.568 674.225 778.12 677.039 776.111 679.382C770.006 686.505 761.952 692.087 755.311 698.728C750.174 703.865 745.862 710.622 740.183 715.165C724.776 727.491 708.604 737.43 692.037 748.474C684.777 753.314 678.815 759.514 672.692 765.638C670.314 768.016 667.346 769.675 664.983 772.038C664.498 772.523 663.528 773.493 663.528 773.493C663.528 773.493 664.304 772.911 664.692 772.62C666.399 771.339 667.488 769.395 669.201 768.111C672.974 765.281 677.815 762.785 682.001 760.693C688.735 757.326 695.46 752.16 701.638 747.747C708.074 743.149 715.278 740.833 720.547 734.51C723.915 730.469 726.381 726.264 728.983 721.71C729.214 721.307 731.541 717.722 731.165 717.347C731.009 717.191 730.305 717.365 730.147 717.492C726.959 720.042 723.892 722.787 720.692 725.347C712.052 732.259 703.198 739.334 693.783 744.983C692.716 745.623 686.334 750.888 685.637 750.656C685.071 750.467 685.846 748.812 685.928 748.62C687.108 745.866 688.572 743.223 690.292 740.765C695.588 733.199 702.061 726.008 705.71 717.492C706.026 716.756 709.905 710.196 709.347 709.637C709.121 709.412 708.375 710.723 708.329 710.801C706.837 713.287 705.314 715.988 703.528 718.219C698.62 724.355 696.808 730.933 693.201 738.147C692.225 740.098 688.983 743.651 688.983 745.856C688.983 746.919 690.484 744.346 691.165 743.529C692.498 741.929 694.048 740.367 695.237 738.583C698.336 733.935 703.532 730.288 707.456 726.365C717.031 716.789 729.446 711.013 739.893 702.655C743.97 699.393 743.53 690.146 749.638 688.11" fill="none" opacity="1" stroke="#ffd335" stroke-linecap="butt" stroke-linejoin="round" stroke-width="10" vectornator:layerName="Curve 6"/>
<path d="M825.621 560.361C825.443 560.088 826.413 561.703 826.543 562.422C826.719 563.399 827.616 566.116 827.356 567.003C826.147 571.133 824.504 576.217 821.573 579.733C812.203 590.972 802.045 602.1 787.64 607.297C772.815 612.645 757.896 618.137 742.614 622.13C737.444 623.481 732.092 623.921 727.121 625.22C721.18 626.772 715.008 627.659 708.86 628.361C707.342 628.534 699.989 627.18 700.051 627.306C700.56 628.352 705.463 627.211 706.19 626.949C712.053 624.834 718.03 622.364 723.871 620.124C733.435 616.455 743.978 614.966 753.784 612.404C768.601 608.532 784.002 600.621 796.177 591.163C803.001 585.862 807.808 580.493 813.414 574.194C815.909 571.391 817.971 567.956 820.315 565.008C820.38 564.925 821.413 563.827 821.45 563.848C821.861 564.089 819.439 569.618 819.087 570.219C815.745 575.926 811.758 581.756 807.744 586.99C797.884 599.849 779.544 603.219 764.241 605.452C758.782 606.249 754.171 609.587 748.557 609.646C744.421 609.69 739.263 611.883 735.226 612.938C734.62 613.096 729.839 615.588 729.716 615.336C729.643 615.186 729.908 614.685 730.001 614.591C733.135 611.389 737.892 608.482 741.726 606.253C754.844 598.628 770.85 596.004 784.734 589.934C794.151 585.817 799.667 578.796 807.391 572.795C810.362 570.488 813.121 566.648 816.65 565.294C816.854 565.216 817.611 564.858 817.774 565.192C817.83 565.308 813.545 574.347 813.242 575.006C809.543 583.07 804.354 589.218 799.021 596.173C797.027 598.773 794.776 603.91 792.101 605.652C788.105 608.254 784.562 609.761 779.796 610.305C778.506 610.453 777.261 610.968 776.027 611.29C775.333 611.472 773.529 612.179 773.892 611.561C775.344 609.081 788.608 607.688 791.457 606.492C795.669 604.723 804.401 594.256 806.832 590.105" fill="none" opacity="1" stroke="#ffd335" stroke-linecap="butt" stroke-linejoin="round" stroke-width="10" vectornator:layerName="Curve 4"/>
<path d="M697.705 642.692C698.3 647.54 698.435 653.158 698.11 657.991C697.891 661.26 696.075 665.416 696.47 668.63C696.503 668.901 696.719 668.131 696.744 667.86C696.866 666.484 696.848 666.429 696.871 664.897C696.891 663.581 696.984 662.267 697 660.952C697.065 655.652 697.408 650.494 698.515 645.294C699.023 642.911 698.887 641.397 699.023 641.425C699.984 641.619 700.142 647.37 700.188 647.912C700.689 653.886 699.317 660.386 698.138 666.215C698.087 666.467 698.286 665.716 698.291 665.459C698.312 664.365 698.167 663.518 698.161 662.405C698.149 659.949 698.212 657.485 698.238 655.028C698.319 647.19 699.061 639.248 699.513 631.418C699.515 631.372 699.744 624.882 699.33 624.933C698.363 625.051 697.801 633.153 697.724 633.848C696.641 643.51 695.851 653.258 694.411 662.866C693.996 665.636 693.316 668.365 692.972 671.147C692.835 672.262 693.533 675.194 692.648 674.502C691.933 673.944 692.288 668.935 692.223 668.046C691.734 661.289 692.332 654.371 693.159 647.671C693.46 645.228 693.912 642.821 694.354 640.402C694.522 639.479 694.759 636.706 694.873 637.637C695.578 643.369 693.245 650.956 692.414 656.603C691.792 660.831 691.418 665.098 690.784 669.328C690.466 671.453 690.174 673.583 689.849 675.706C689.461 678.234 688.967 680.766 688.819 683.323C688.803 683.609 688.802 684.184 688.802 684.184C688.802 684.184 688.594 682.491 688.49 681.644C688.193 679.224 687.896 676.805 687.599 674.386C686.826 668.093 687.149 661.621 688.713 655.462C688.816 655.056 690.901 647.214 691.648 647.365C691.803 647.396 691.649 648.325 691.646 648.348C691.172 651.117 690.899 653.887 690.706 656.69C690.17 664.45 690.534 672.205 690.127 679.969C690.093 680.615 689.278 686.32 690.339 686.697C691.003 686.933 692.36 680.347 692.455 679.929C692.947 677.762 697.437 660.898 698.815 660.729C699.299 660.669 699.079 661.7 698.993 662.18C698.498 664.959 698.037 667.754 697.69 670.568C697.144 674.992 697.923 684.269 695.038 687.962C694.243 688.979 695.168 685.373 695.424 684.108C695.632 683.08 698.704 672.125 699.288 672.582C699.772 672.959 697.132 680.184 696.973 680.725C694.9 687.791 694.014 697.298 690.212 703.658C689.981 704.045 692.123 697.225 692.026 696.436C691.893 695.35 691.109 698.422 690.675 699.426C690.069 700.828 689.59 702.283 688.987 703.686C687.218 707.804 685.568 711.934 684.138 716.192C682.441 721.247 682.017 726.721 680.265 731.649C677.721 738.809 671.431 747.181 665.709 752.101C658.665 758.158 653.409 768.944 644.773 772.6C643.315 773.218 642.808 774.837 641.185 775.374C639.435 775.953 634.663 781.543 632.121 779.557C631.007 778.687 632.608 775.094 632.933 774.177C633.456 772.707 641.18 759.867 641.596 759.729C641.991 759.598 641.999 760.844 642.001 761.03C642.05 765.217 641.21 769.463 641.098 773.666C641.072 774.611 641.176 775.542 641.197 776.478C641.204 776.765 640.941 777.498 641.18 777.339C641.484 777.138 641.805 765.036 641.965 763.736C641.987 763.564 642.5 760.05 642.88 760.185C643.148 760.28 642.949 760.75 642.984 761.032C643.346 763.98 643.587 766.938 643.948 769.878C644.004 770.337 644.123 771.466 644.474 771.164C646.95 769.035 645.39 753.113 650.306 751.66C652.284 751.075 651.838 759.638 651.783 760.688C651.731 761.676 651.713 762.661 651.656 763.651C651.641 763.907 651.645 764.62 651.503 764.406C650.222 762.477 652.994 749.98 653.188 747.131C653.335 744.96 653.209 742.905 653.141 740.751C653.132 740.464 653.158 739.89 653.158 739.89C653.158 739.89 653.299 742.984 653.36 744.531C653.479 747.583 653.964 750.6 654.111 753.648C654.176 754.995 654.362 756.324 654.359 757.67C654.358 758.124 654.577 759.375 654.281 759.03C652.498 756.957 653.7 741.936 653.086 738.302C652.954 737.525 652.307 732.82 651.39 732.494C651.314 732.467 651.57 734.956 651.581 735.049C651.821 737 652.147 738.898 652.536 740.826C652.848 742.374 655.054 753.312 656.167 753.396C657.113 753.467 657.756 747.588 657.844 747.05C658.812 741.111 659.189 735.108 659.817 729.126C659.833 728.974 660.485 723.37 661.114 723.686C662.108 724.186 662.707 738.521 662.772 740.183C662.783 740.475 662.681 744.765 662.973 744.824C663.597 744.95 663.849 740.515 663.875 740.17C664.281 734.786 665.003 729.394 665.951 724.075C666.252 722.382 666.594 720.635 667.171 719.013C667.378 718.429 667.541 716.851 667.945 717.321C668.213 717.633 666.947 735.711 667.01 737.697C667.056 739.146 667.126 740.64 667.303 742.082C667.342 742.404 667.099 743.089 667.422 743.05C668.36 742.934 670 732.952 670.212 731.778C671.979 721.999 673.839 712.095 679.282 703.65C680.96 701.047 682.864 698.646 684.755 696.224C684.761 696.217 685.463 695.26 685.498 695.273C686.681 695.693 684.604 697.62 684.085 698.762C683.67 699.676 683.238 700.581 682.824 701.496C681.199 705.092 679.689 708.625 678.387 712.355C675.663 720.158 674.019 728.166 671.851 736.12C671.506 737.384 671.116 740.841 670.236 741.967C669.181 743.318 669.961 738.536 670.096 736.827C670.194 735.58 670.352 734.337 670.497 733.094C671.047 728.354 671.851 723.764 673.081 719.147C676.716 705.505 684.363 693.408 689.431 680.3C690.635 677.184 692.386 673.367 692.582 669.967C692.595 669.735 692.589 669.324 692.251 669.271C688.502 668.681 684.818 678.514 683.836 680.742C680.807 687.616 679.045 694.865 676.489 701.905C673.956 708.884 670.612 715.5 667.829 722.37C666.092 726.657 664.606 731.065 662.918 735.376C662.432 736.616 662.005 739.54 660.885 738.818C659.23 737.751 660.279 731.499 660.45 730.276C661.243 724.581 662.898 719.008 664.658 713.55C670.121 696.614 675.286 678.255 683.815 662.571C684.937 660.506 694.454 646.219 694.298 644.952C694.178 643.968 693.285 646.665 692.902 647.579C692.239 649.162 691.521 650.714 690.776 652.261C688.697 656.574 686.541 660.896 684.64 665.294C678.414 679.698 676.317 694.766 672.678 709.864C671.466 714.889 670.671 719.986 669.123 724.913C668.831 725.845 667.324 731.274 666.388 731.634C665.883 731.828 666.466 730.732 666.632 730.622" fill="none" opacity="1" stroke="#ffd335" stroke-linecap="butt" stroke-linejoin="round" stroke-width="10" vectornator:layerName="Curve 3"/>
<path d="M833.841 561.023C839.668 584.261 788.396 634.203 700.868 636.376" fill="none" opacity="1" stroke="#ffcc17" stroke-linecap="butt" stroke-linejoin="round" stroke-width="10" vectornator:layerName="Curve 1"/>
<path d="M634.205 785.905C654.153 782.96 716.184 723.827 705.333 633.35" fill="none" opacity="1" stroke="#ffcc17" stroke-linecap="butt" stroke-linejoin="round" stroke-width="10" vectornator:layerName="Curve 2"/>
<path d="M634.205 785.905L494.9 811.195" fill="none" opacity="1" stroke="#ffcc17" stroke-linecap="butt" stroke-linejoin="round" stroke-width="10" vectornator:layerName="Line 1"/>
<path d="M833.915 561.275L817.339 478.737" fill="none" opacity="1" stroke="#ffcc17" stroke-linecap="butt" stroke-linejoin="round" stroke-width="10" vectornator:layerName="Line 2"/>
<path d="M633.591 785.905C705.983 779.982 833.539 644.706 833.915 568.968" fill="none" opacity="1" stroke="#ffcc17" stroke-linecap="butt" stroke-linejoin="round" stroke-width="10" vectornator:layerName="Curve 5"/>
</g>
<g id="Layer-3" vectornator:layerName="Layer 3">
<path d="M743.875 128.969C482.47 179.344 482.467 179.344 221.062 229.719C279.4 532.578 279.381 532.578 337.719 835.438C487.149 807.599 558.657 794.294 636.594 779.781C651.48 769.988 657.482 765.041 664 756.125C664.712 755.151 665.711 754.574 666.781 754.25C668.115 752.287 668.945 750.997 670.531 748.688C670.676 748.477 670.668 748.491 670.812 748.281C676.091 740.597 678.576 736.928 681.469 732.5C682.127 731.493 682.866 730.445 683.812 729.156C684.306 728.484 685.993 726.179 686.219 725.875C686.296 725.771 686.331 725.727 686.406 725.625C687.711 721.765 689.051 717.55 690.844 711.625C692.711 705.453 693.297 703.484 694.281 700.406C694.664 699.209 694.819 698.77 695.75 696C697.148 691.836 697.828 689.644 698.406 687.25C698.643 686.271 698.849 685.36 699 684.469C699.139 683.644 699.485 682.921 699.938 682.281C700.373 679.011 700.877 675.92 701.219 672.375C701.38 670.704 701.814 669.122 702.5 666.781C702.464 662.447 702.371 658.558 702.156 655.031C702.098 654.067 702.103 653.314 702.156 650.375C702.179 649.103 702.184 648.343 702.188 647.531C702.189 647.099 702.16 646.886 702.156 646.5C702.011 644.838 701.846 643.058 701.719 641.5C701.567 640.99 701.497 640.488 701.5 639.969C701.432 639.804 701.371 639.633 701.312 639.469C701.196 639.143 701.102 638.844 701.031 638.469C700.835 637.422 700.835 636.398 701.406 635.125C702.431 632.838 704.432 631.713 706.594 631.469C707.469 631.37 708.279 631.454 709.156 631.594C709.792 631.501 710.602 631.488 711.312 631.438C711.395 631.426 711.45 631.417 711.531 631.406C712.213 631.312 712.822 631.245 713.406 631.188C714 631.129 714.496 631.143 715.031 631.125C715.263 631.088 715.547 631.026 715.75 631C716.151 630.949 716.515 630.914 716.875 630.906C717.208 630.899 717.538 630.918 717.906 630.969C718.173 630.886 718.425 630.791 718.719 630.719C719.394 630.553 720.217 630.389 721.281 630.219C721.994 630.105 728.31 629.188 728.312 629.188C734.509 627.54 740.86 626.295 750.906 624.562C752.495 624.289 754.122 623.85 756.688 623.062C756.799 623.028 756.899 623.014 757.062 622.969C757.065 622.968 757.121 622.939 757.125 622.938C757.279 622.879 758.506 622.435 759.188 622.188C759.206 622.179 759.212 622.174 759.25 622.156C759.289 622.138 759.336 622.143 759.375 622.125C759.892 621.89 760.377 621.723 761.031 621.625C761.069 621.609 761.118 621.609 761.156 621.594C761.864 621.301 762.667 621.034 763.375 620.719C768.951 618.231 772.782 616.739 776.656 615.562C776.758 615.509 776.821 615.463 776.938 615.406C778.26 614.758 782.493 612.81 782.625 612.75C786.024 611.21 786.074 611.171 786.969 610.75C797.561 604.71 804.583 600.128 811.094 594.344C811.293 594.167 814.004 591.823 814.812 591.094C816.2 589.842 817.262 588.767 818.125 587.812C818.403 587.505 818.585 587.273 818.812 587C818.82 586.978 818.836 586.959 818.844 586.938C819.066 586.301 819.401 585.694 819.875 585.156C824.413 580.009 827.168 574.939 827.906 569.844C827.974 569.374 828.059 569.063 828.281 568.281C828.28 568.287 828.773 566.519 828.812 566.375C828.836 566.289 828.824 566.267 828.844 566.188C828.842 566.167 828.847 566.146 828.844 566.125C828.841 566.093 828.848 566.063 828.844 566.031C828.835 565.925 828.819 565.828 828.812 565.719C828.808 565.612 828.878 565.511 828.875 565.406C828.868 564.995 828.826 564.582 828.906 564.125C828.976 563.729 829.141 563.372 829.281 563C829.309 562.925 829.306 562.853 829.312 562.781C803.974 434.133 786.595 345.867 743.875 128.969Z" fill="url(#LinearGradient)" fill-rule="nonzero" opacity="1" stroke="none" vectornator:layerName="Curve 1"/>
<g fill="#000002" opacity="1" stroke="none" vectornator:layerName="Text 1">
<path d="M411.534 385.323C413.044 392.815 409.848 399.467 401.944 405.277C395.735 409.98 388.393 413.185 379.918 414.894C372.181 416.453 362.745 416.566 351.613 415.231C337.825 413.409 330.337 409.551 329.149 403.655C328.703 401.445 329.118 399.38 330.393 397.461C331.668 395.543 333.41 394.361 335.621 393.915C338.937 393.247 342.28 393.979 345.65 396.111C351.257 399.199 354.281 400.89 354.724 401.184C359.518 402.774 367.503 402.442 378.68 400.19C388.628 398.184 393.145 394.909 392.228 390.365C391.461 386.558 385.729 382.217 375.033 377.344C367.682 374.48 360.331 371.616 352.98 368.752C343.489 364.786 336.333 360.669 331.51 356.401C325.138 350.783 321.085 343.676 319.352 335.079C317.173 324.271 318.546 313.961 323.47 304.149C328.712 293.379 336.614 286.929 347.177 284.8C356.265 282.968 364.443 283.908 371.709 287.62C378.976 291.331 384.373 297.497 387.899 306.116C388.961 309.481 390.725 314.429 393.192 320.961C394.08 322.827 394.623 324.252 394.821 325.234C395.712 329.656 395.73 333.55 394.875 336.918C393.875 341.465 391.409 344.135 387.479 344.927C385.268 345.373 382.945 344.787 380.51 343.169C378.075 341.551 376.635 339.636 376.189 337.425C375.867 335.829 375.759 333.39 375.865 330.11C375.971 326.829 375.862 324.391 375.541 322.794C372.198 306.213 365 299.037 353.947 301.265C347.806 302.503 343.173 306.153 340.049 312.214C336.926 318.276 335.995 324.439 337.258 330.703C339.04 339.546 346.055 347.078 358.301 353.301C369.316 357.855 380.392 362.396 391.53 366.925C403.48 372.313 410.148 378.445 411.534 385.323Z"/>
<path d="M457.332 326.246C458 329.562 453.374 332.923 443.452 336.329C443.751 339.08 444.866 345.246 446.797 354.826L449.248 366.985C449.743 369.441 450.873 372.984 452.637 377.613C454.401 382.242 455.518 385.724 455.988 388.057C456.384 390.022 455.754 391.971 454.099 393.902C452.443 395.833 450.633 396.997 448.668 397.393C445.597 398.012 442.486 395.891 439.333 391.031C436.919 387.3 435.329 383.53 434.561 379.723L426.689 340.666C420.866 340.945 417.499 341.049 416.59 340.976C413.199 340.637 411.317 339.547 410.946 337.705C410.847 337.213 410.858 336.636 410.98 335.972C413.258 330.784 416.361 327.794 420.292 327.002C420.537 326.952 420.906 326.878 421.397 326.779C421.913 326.803 422.294 326.79 422.539 326.74C425.119 326.221 425.74 322.964 424.404 316.97L421.694 303.522C420.684 302.319 420.081 301.227 419.883 300.244C419.561 298.647 420.222 297.012 421.865 295.339C423.509 293.666 425.191 292.656 426.91 292.309C429.49 291.789 432.187 292.492 435.004 294.416C437.82 296.341 439.501 298.654 440.045 301.356C440.639 304.304 440.767 307.314 440.427 310.386C440.088 313.458 440.289 316.516 441.031 319.562L441.18 320.299C450.958 319.351 456.342 321.333 457.332 326.246Z"/>
<path d="M482.265 289.203C482.81 291.905 482.334 294.302 480.839 296.392C479.343 298.483 477.244 299.801 474.542 300.346C471.349 300.989 468.147 300.484 464.938 298.831C461.729 297.177 459.803 294.753 459.159 291.56C458.615 288.858 459.121 286.455 460.678 284.352C462.235 282.249 464.426 280.913 467.251 280.343C470.567 279.675 473.731 280.155 476.744 281.785C479.756 283.414 481.597 285.887 482.265 289.203ZM485.806 315.33C486.252 317.54 486.392 320.771 486.226 325.022C486.061 329.274 486.201 332.504 486.646 334.715L494.296 372.667C494.767 375 496.185 378.549 498.551 383.312C497.278 386.508 495.536 388.329 493.325 388.775C485.588 390.334 480.571 387.32 478.274 379.731C474.149 365.608 471.357 354.924 469.896 347.677C467.445 335.518 465.881 325.225 465.205 316.798C464.959 316.209 464.773 315.607 464.65 314.993C464.204 312.782 465.701 311.33 469.14 310.637C472.21 310.018 475.404 310.013 478.722 310.623C482.925 311.181 485.286 312.75 485.806 315.33Z"/>
<path d="M569.599 350.586C570.367 354.393 568.384 359.458 563.651 365.78C559.458 371.61 555.428 375.553 551.561 377.611C547.695 379.669 543.919 381.069 540.234 381.811C530.531 383.767 522.328 382.226 515.625 377.186C508.922 372.147 504.592 364.776 502.636 355.073C500.73 345.616 501.119 334.546 503.802 321.863C506.998 306.648 512.588 298.236 520.571 296.627C524.993 295.736 530.682 296.379 537.639 298.555C545.039 301.025 549.675 304.053 551.548 307.638C553.199 310.756 554.445 314.403 555.287 318.579C556.054 322.386 556.123 326.846 555.491 331.957C554.764 338.495 552.927 342.06 549.979 342.654C547.891 343.075 545.802 342.857 543.712 342C541.229 341.095 539.79 339.66 539.394 337.695C539.369 337.572 539.637 336.048 540.197 333.123C540.564 331.771 540.19 328.332 539.076 322.805C538.16 318.26 537.382 315.35 536.741 314.073C535.237 310.414 533.133 308.857 530.431 309.402C524.413 310.615 520.798 316.776 519.586 327.884C518.69 336.116 519.034 344.163 520.618 352.024C523.267 365.165 528.767 370.894 537.119 369.211C540.435 368.543 543.896 366.056 547.502 361.75C550.788 357.765 552.896 353.953 553.824 350.315C554.997 345.988 556.996 343.541 559.82 342.971C561.663 342.6 563.66 343.316 565.813 345.118C567.966 346.921 569.228 348.744 569.599 350.586Z"/>
<path d="M656.561 360.664C652.587 365.044 649.249 367.506 646.547 368.05C642.985 368.768 637.084 366.124 628.843 360.116C623.013 355.923 617.233 351.656 611.501 347.316C608.155 344.667 602.953 341.051 595.894 336.467L595.415 336.946L598.683 353.159C598.881 354.141 599.571 355.504 600.754 357.247C601.936 358.99 602.638 360.414 602.861 361.519C603.207 363.238 602.62 364.923 601.099 366.571C599.578 368.22 597.897 369.23 596.054 369.601C592.861 370.245 590.01 369.733 587.501 368.066C584.992 366.399 583.416 363.969 582.773 360.775L577.871 336.457C577.574 334.983 577.337 332.698 577.16 329.603C576.983 326.507 576.746 324.222 576.449 322.748L566.46 273.19C564.95 265.698 563.184 259.792 561.162 255.47C560.25 253.481 559.683 251.934 559.46 250.829C558.99 248.495 559.981 246.122 562.435 243.711C564.544 241.496 566.827 240.141 569.284 239.646C571.126 239.275 573.264 239.579 575.698 240.558C578.132 241.537 579.523 242.886 579.869 244.606C579.968 245.097 579.947 246.891 579.804 249.987C579.661 253.083 580.209 257.702 581.447 263.843C581.843 265.808 584.963 282.242 590.809 313.144C591.201 312.553 596.608 305.137 607.029 290.894C615.611 278.939 620.824 272.776 622.666 272.405C629.175 271.093 633.112 274.453 634.475 282.486L634.847 284.328C630.184 288.463 624.346 294.689 617.331 303.005C608.427 313.363 604.248 319.893 604.792 322.595C604.842 322.84 608.938 326.041 617.08 332.196C624.78 338.057 629.601 341.686 631.545 343.084C640.474 349.336 648.416 353.231 655.372 354.768L656.561 360.664Z"/>
<path d="M704.524 271.434C704.657 277.797 704.838 284.087 705.069 290.304C705.277 297.675 705.888 303.878 706.903 308.914L717.004 359.024C718.836 368.113 717.625 375.578 713.371 381.421C709.116 387.263 702.445 391.1 693.356 392.932C687.461 394.12 680.642 393.897 672.899 392.263C663.707 390.409 658.603 386.964 657.588 381.929C657.241 380.209 657.657 378.624 658.834 377.172C660.011 375.721 661.459 374.822 663.179 374.475C664.284 374.252 667.259 375.378 672.103 377.853C676.948 380.327 682.072 381.02 687.476 379.93C694.354 378.544 698.452 375.098 699.771 369.592C700.797 365.806 700.543 360.106 699.008 352.491C698.438 349.666 697.907 347.345 697.412 345.527C693.904 349.046 689.632 351.313 684.596 352.329C675.385 354.185 667.593 352.305 661.22 346.688C655.463 341.586 651.643 334.367 649.762 325.033C649.564 324.051 647.058 308.451 642.246 278.236C645.609 275.896 648.395 274.504 650.606 274.058C653.063 273.563 656.983 274.307 662.367 276.289C660.905 284.252 662.402 299.288 666.858 321.395C669.705 335.52 674.69 341.864 681.814 340.428C687.095 339.363 690.257 334.125 691.299 324.712C692.1 317.905 691.807 311.062 690.421 304.184L685.89 281.708C685.915 281.831 685.322 279.842 684.112 275.74C688.652 272.268 692.151 270.285 694.607 269.79C697.186 269.27 700.492 269.818 704.524 271.434Z"/>
<path d="M444.761 519.728C445.034 521.079 444.827 522.909 444.143 525.22C443.337 528.195 442.873 530.014 442.751 530.677C441.442 542.572 441.505 552.081 442.941 559.204L453.047 612.19C454.013 617.619 453.899 623.393 452.704 629.513C451.07 637.256 447.98 641.585 443.436 642.501C436.681 643.863 428.848 639.562 419.938 629.6C413.465 622.213 406.286 611.646 398.402 597.898C393.647 588.888 388.829 579.889 383.95 570.904C385.58 592.303 387.113 606.564 388.549 613.688C391.718 629.409 394.489 638.244 396.863 640.194C399.237 642.144 400.536 643.672 400.759 644.777C401.229 647.111 400.415 649.415 398.318 651.691C396.221 653.967 393.944 655.353 391.487 655.848C388.048 656.541 384.493 653.488 380.822 646.687C377.963 641.384 376.064 636.399 375.123 631.731C374.702 629.643 374.138 626.53 373.432 622.391C372.725 618.251 372.162 615.138 371.741 613.05C370.726 608.014 369.83 600.398 369.052 590.202C368.275 580.006 367.379 572.391 366.364 567.355L361.834 544.879C361.784 544.633 361.618 544.283 361.334 543.829C361.051 543.375 360.885 543.025 360.835 542.78C360.34 540.323 361.59 537.962 364.584 535.697C367.014 533.802 369.58 532.582 372.282 532.037C378.545 530.774 383.437 531.897 386.956 535.406C387.965 536.608 389.21 539.297 390.691 543.472C391.653 546.345 392.628 549.28 393.616 552.276C396.847 560.699 403.539 573.921 413.689 591.941C425.761 613.152 433.64 623.387 437.324 622.644C438.675 622.372 439.004 620.516 438.311 617.077C438.113 616.095 437.638 614.529 436.885 612.38C436.132 610.231 435.632 608.543 435.385 607.314L427.163 557.017C426.021 549.451 425.825 541.821 426.576 534.129C427.714 523.292 430.985 517.328 436.389 516.239C438.109 515.892 440.727 516.515 444.243 518.107C444.489 518.696 444.662 519.236 444.761 519.728Z"/>
<path d="M540.251 588.285C542.48 599.339 541.622 609.353 537.68 618.328C533.101 628.581 525.53 634.772 514.967 636.901C504.159 639.08 495.249 637.041 488.236 630.786C481.889 625.292 477.588 616.956 475.335 605.78C473.107 594.726 473.766 583.729 477.313 572.79C481.347 559.834 488.462 552.329 498.656 550.274C501.849 549.631 506.126 550.239 511.485 552.098C526.9 557.554 536.488 569.616 540.251 588.285ZM523.965 591.185C520.177 572.393 513.739 563.913 504.65 565.745C498.141 567.057 494.032 572.039 492.326 580.691C491.082 587.205 491.228 594.269 492.763 601.883C496.056 618.218 502.553 625.408 512.256 623.452C518.52 622.19 522.506 617.871 524.215 610.497C525.509 604.868 525.426 598.431 523.965 591.185Z"/>
<path d="M583.278 548.746C583.946 552.062 579.32 555.423 569.398 558.829C569.697 561.58 570.812 567.746 572.743 577.326L575.194 589.485C575.689 591.942 576.819 595.484 578.582 600.114C580.346 604.743 581.463 608.224 581.934 610.557C582.33 612.523 581.7 614.471 580.045 616.402C578.389 618.334 576.578 619.497 574.613 619.893C571.543 620.512 568.431 618.392 565.279 613.531C562.865 609.8 561.275 606.031 560.507 602.223L552.634 563.167C546.811 563.446 543.445 563.549 542.536 563.477C539.145 563.138 537.263 562.047 536.892 560.205C536.793 559.714 536.804 559.136 536.926 558.473C539.203 553.285 542.307 550.294 546.237 549.502C546.483 549.453 546.851 549.378 547.343 549.279C547.859 549.303 548.24 549.29 548.485 549.241C551.065 548.721 551.686 545.464 550.35 539.471L547.639 526.022C546.63 524.819 546.026 523.727 545.828 522.744C545.507 521.148 546.167 519.513 547.811 517.839C549.455 516.166 551.137 515.156 552.856 514.809C555.435 514.29 558.133 514.992 560.949 516.917C563.766 518.841 565.446 521.154 565.991 523.856C566.585 526.804 566.713 529.814 566.373 532.886C566.034 535.958 566.235 539.017 566.977 542.062L567.125 542.799C576.903 541.851 582.287 543.833 583.278 548.746Z"/>
<path d="M658.153 585.416C659.391 591.557 656.181 597.189 648.522 602.311C642.558 606.326 636.013 609.051 628.89 610.486C609.976 614.299 598.352 605.459 594.02 583.965C592.237 575.122 592.406 564.863 594.526 553.189C597.133 538.859 602.183 530.94 609.675 529.43C616.43 528.068 624.314 529.61 633.326 534.056C642.338 538.502 647.5 543.98 648.813 550.49C650.447 558.596 648.123 565.774 641.842 572.025C636.322 577.611 629.141 581.295 620.298 583.078C618.578 583.424 615.604 582.937 611.376 581.617C614.219 593.186 618.834 598.326 625.221 597.039C630.625 595.95 635.627 593.344 640.228 589.221C644.829 585.098 647.866 582.889 649.34 582.591C654.622 581.527 657.559 582.468 658.153 585.416ZM631.054 554.644C630.435 551.574 628.956 548.836 626.618 546.432C624.28 544.028 621.638 543.122 618.69 543.717C614.637 544.534 611.864 546.946 610.371 550.953C609.148 554.395 608.957 558.204 609.799 562.38C610.269 564.713 611.451 566.456 613.345 567.608C615.239 568.76 617.414 569.089 619.87 568.593C628.836 566.786 632.564 562.136 631.054 554.644Z"/>
</g>
</g>
<g id="Layer-1" vectornator:layerName="Layer 1" visibility="hidden">
<path d="M341.976 840.033L634.68 780.686" fill="none" opacity="1" stroke="#ffcc17" stroke-linecap="butt" stroke-linejoin="round" stroke-width="10" vectornator:layerName="Line 2"/>
<path d="M830.327 565.347L740.609 122.846" fill="none" opacity="1" stroke="#ffcc17" stroke-linecap="butt" stroke-linejoin="round" stroke-width="10" vectornator:layerName="Line 3"/>
<path d="M740.609 122.846L450.492 181.668" fill="none" opacity="1" stroke="#ffcc17" stroke-linecap="butt" stroke-linejoin="round" stroke-width="10" vectornator:layerName="Line 4"/>
<path d="M341.976 840.033L238.643 330.383" fill="none" opacity="1" stroke="#ffcc17" stroke-linecap="butt" stroke-linejoin="round" stroke-width="10" vectornator:layerName="Line 5"/>
<path d="M238.643 330.383L218.046 228.798" fill="none" opacity="1" stroke="#ffcc17" stroke-linecap="butt" stroke-linejoin="round" stroke-width="10" vectornator:layerName="Line 6"/>
<path d="M479.328 175.822L218.046 228.798" fill="none" opacity="1" stroke="#ffcc17" stroke-linecap="butt" stroke-linejoin="round" stroke-width="10" vectornator:layerName="Line 7"/>
<path d="M634.68 780.686C752.516 716.462 828.053 589.886 830.327 565.347" fill="none" opacity="1" stroke="#ffcc17" stroke-linecap="butt" stroke-linejoin="round" stroke-width="10" vectornator:layerName="Curve 1"/>
<path d="M720.296 626.797C711.772 628.035 702.468 628.858 692.251 629.193" fill="none" opacity="1" stroke="#ffcc17" stroke-linecap="butt" stroke-linejoin="round" stroke-width="10" vectornator:layerName="Curve 4"/>
<path d="M830.153 564.486C801.427 589.132 779.967 618.133 720.296 626.797" fill="none" opacity="1" stroke="#ffcc17" stroke-linecap="butt" stroke-linejoin="round" stroke-width="10" vectornator:layerName="Curve 2"/>
<path d="M695.436 629.444C707.96 706.674 685.89 732.66 634.68 780.686" fill="none" opacity="1" stroke="#ffcc17" stroke-linecap="butt" stroke-linejoin="round" stroke-width="10" vectornator:layerName="Curve 3"/>
</g>
<g id="Layer-4" vectornator:layerName="Layer 4">
<path d="M711.316 142.243C712.397 139.676 718.759 139.882 725.528 142.704L725.528 142.704C732.296 145.526 736.907 149.894 735.827 152.462L715.218 201.431C714.137 203.999 707.774 203.792 701.006 200.971L701.006 200.971C694.238 198.149 689.626 193.78 690.707 191.213L711.316 142.243Z" fill="#000000" fill-rule="nonzero" opacity="1" stroke="none" vectornator:layerName="Rectangle 3"/>
<path d="M712.059 140.527C713.14 137.959 719.503 138.166 726.271 140.987L726.271 140.987C733.04 143.809 737.651 148.178 736.57 150.745L715.961 199.715C714.88 202.282 708.518 202.076 701.749 199.254L701.749 199.254C694.981 196.432 690.37 192.064 691.45 189.497L712.059 140.527Z" fill="url(#LinearGradient_2)" fill-rule="nonzero" opacity="1" stroke="none" vectornator:layerName="Rectangle 1"/>
<path d="M677.349 117.937C683.158 103.352 710.102 100.217 737.529 110.935C764.957 121.653 782.481 142.166 776.672 156.752C770.862 171.338 743.919 174.473 716.491 163.755C689.064 153.036 671.539 132.523 677.349 117.937Z" fill="url(#RadialGradient)" fill-rule="nonzero" opacity="1" stroke="none" vectornator:layerName="Oval 1"/>
<path d="M717.932 91.3288C723.235 78.4723 738.055 72.3081 751.035 77.5607L751.035 77.5607C764.014 82.8133 770.237 97.4935 764.934 110.35L754.797 134.928C749.494 147.784 734.673 153.949 721.694 148.696L721.694 148.696C708.715 143.443 702.492 128.763 707.795 115.907L717.932 91.3288Z" fill="url(#LinearGradient_3)" fill-rule="nonzero" opacity="1" stroke="none" vectornator:layerName="Rectangle 2"/>
<path d="M714.031 67.5762C717.954 57.5063 737.534 55.6119 757.764 63.3451C777.994 71.0783 791.213 85.5105 787.29 95.5804C783.367 105.65 763.787 107.545 743.557 99.8114C723.327 92.0783 710.108 77.6461 714.031 67.5762Z" fill="url(#LinearGradient_4)" fill-rule="nonzero" opacity="1" stroke="none" vectornator:layerName="Oval 2"/>
</g>
</svg>
