<?xml version="1.0" encoding="UTF-8" standalone="no"?>
<!DOCTYPE svg PUBLIC "-//W3C//DTD SVG 1.1//EN" "http://www.w3.org/Graphics/SVG/1.1/DTD/svg11.dtd">
<!-- Created with Vectornator (http://vectornator.io/) -->
<svg height="100%" stroke-miterlimit="10" style="fill-rule:nonzero;clip-rule:evenodd;stroke-linecap:round;stroke-linejoin:round;" version="1.1" viewBox="0 0 1024 1024" width="100%" xml:space="preserve" xmlns="http://www.w3.org/2000/svg" xmlns:vectornator="http://vectornator.io" xmlns:xlink="http://www.w3.org/1999/xlink">
  <defs>
    <mask id="Mask">
      <rect x="0" y="0" width="1024" height="1024" fill="white" />
      <!-- <rect x="412" y="412" width="100" height="50" fill="black" /> -->
      <!-- <rect x="462" y="462" width="100" height="50" fill="black" /> -->
      <!-- <path d="M413.549 403.512C415.059 411.004 411.863 417.656 403.96 423.467C397.75 428.169 390.408 431.375 381.934 433.083C374.196 434.643 364.761 434.755 353.628 433.42C339.84 431.598 332.353 427.74 331.164 421.844C330.719 419.634 331.133 417.569 332.408 415.651C333.683 413.732 335.426 412.55 337.636 412.104C340.953 411.436 344.295 412.168 347.665 414.301C353.272 417.388 356.297 419.079 356.739 419.373C361.533 420.963 369.518 420.632 380.695 418.379C390.644 416.373 395.16 413.098 394.244 408.554C393.476 404.747 387.745 400.406 377.049 395.533C369.697 392.669 362.346 389.805 354.995 386.941C345.504 382.975 338.348 378.858 333.525 374.59C327.153 368.973 323.1 361.865 321.367 353.268C319.188 342.46 320.561 332.15 325.485 322.338C330.727 311.568 338.629 305.119 349.192 302.989C358.281 301.157 366.458 302.097 373.725 305.809C380.991 309.52 386.388 315.686 389.915 324.305C390.976 327.67 392.741 332.618 395.208 339.15C396.095 341.017 396.638 342.441 396.836 343.423C397.727 347.845 397.745 351.74 396.89 355.107C395.89 359.654 393.424 362.324 389.494 363.116C387.283 363.562 384.96 362.976 382.525 361.358C380.09 359.74 378.65 357.825 378.204 355.615C377.883 354.018 377.775 351.579 377.88 348.299C377.986 345.018 377.878 342.58 377.556 340.983C374.214 324.402 367.016 317.226 355.962 319.454C349.821 320.692 345.188 324.342 342.065 330.404C338.941 336.465 338.01 342.628 339.273 348.892C341.056 357.735 348.07 365.268 360.316 371.49C371.331 376.044 382.407 380.585 393.545 385.114C405.495 390.502 412.163 396.634 413.549 403.512Z"
      fill="black"/>
      <path d="M660.169 603.605C661.407 609.746 658.196 615.378 650.538 620.5C644.573 624.515 638.029 627.24 630.905 628.676C611.991 632.488 600.367 623.648 596.035 602.154C594.252 593.311 594.421 583.052 596.541 571.378C599.149 557.049 604.198 549.129 611.69 547.619C618.446 546.257 626.329 547.799 635.341 552.245C644.354 556.691 649.516 562.169 650.828 568.679C652.462 576.785 650.138 583.963 643.858 590.214C638.337 595.8 631.156 599.484 622.313 601.267C620.593 601.613 617.619 601.126 613.391 599.806C616.234 611.375 620.849 616.516 627.236 615.228C632.64 614.139 637.642 611.533 642.243 607.41C646.844 603.288 649.882 601.078 651.355 600.781C656.637 599.716 659.574 600.658 660.169 603.605ZM633.069 572.834C632.45 569.763 630.972 567.026 628.634 564.621C626.296 562.217 623.653 561.312 620.705 561.906C616.652 562.723 613.879 565.135 612.386 569.142C611.163 572.584 610.972 576.393 611.814 580.569C612.284 582.902 613.466 584.645 615.36 585.797C617.254 586.949 619.429 587.278 621.885 586.783C630.851 584.975 634.579 580.326 633.069 572.834Z"
      fill = "black"/> -->
      <path d="M413.549 403.512C415.059 411.004 411.863 417.656 403.96 423.467C397.75 428.169 390.408 431.375 381.934 433.083C374.196 434.643 364.761 434.755 353.628 433.42C339.84 431.598 332.353 427.74 331.164 421.844C330.719 419.634 331.133 417.569 332.408 415.651C333.683 413.732 335.426 412.55 337.636 412.104C340.953 411.436 344.295 412.168 347.665 414.301C353.272 417.388 356.297 419.079 356.739 419.373C361.533 420.963 369.518 420.632 380.695 418.379C390.644 416.373 395.16 413.098 394.244 408.554C393.476 404.747 387.745 400.406 377.049 395.533C369.697 392.669 362.346 389.805 354.995 386.941C345.504 382.975 338.348 378.858 333.525 374.59C327.153 368.973 323.1 361.865 321.367 353.268C319.188 342.46 320.561 332.15 325.485 322.338C330.727 311.568 338.629 305.119 349.192 302.989C358.281 301.157 366.458 302.097 373.725 305.809C380.991 309.52 386.388 315.686 389.915 324.305C390.976 327.67 392.741 332.618 395.208 339.15C396.095 341.017 396.638 342.441 396.836 343.423C397.727 347.845 397.745 351.74 396.89 355.107C395.89 359.654 393.424 362.324 389.494 363.116C387.283 363.562 384.96 362.976 382.525 361.358C380.09 359.74 378.65 357.825 378.204 355.615C377.883 354.018 377.775 351.579 377.88 348.299C377.986 345.018 377.878 342.58 377.556 340.983C374.214 324.402 367.016 317.226 355.962 319.454C349.821 320.692 345.188 324.342 342.065 330.404C338.941 336.465 338.01 342.628 339.273 348.892C341.056 357.735 348.07 365.268 360.316 371.49C371.331 376.044 382.407 380.585 393.545 385.114C405.495 390.502 412.163 396.634 413.549 403.512Z"
      fill="black"/>
      <path d="M459.347 344.435C460.016 347.751 455.389 351.112 445.467 354.518C445.766 357.269 446.881 363.435 448.812 373.015L451.263 385.174C451.759 387.631 452.888 391.173 454.652 395.802C456.416 400.431 457.533 403.913 458.003 406.246C458.399 408.211 457.77 410.16 456.114 412.091C454.458 414.022 452.648 415.186 450.683 415.582C447.612 416.201 444.501 414.08 441.348 409.22C438.935 405.489 437.344 401.72 436.577 397.912L428.704 358.855C422.881 359.134 419.515 359.238 418.605 359.165C415.214 358.827 413.333 357.736 412.961 355.894C412.862 355.402 412.874 354.825 412.996 354.161C415.273 348.973 418.377 345.983 422.307 345.191C422.552 345.141 422.921 345.067 423.412 344.968C423.928 344.992 424.309 344.979 424.555 344.93C427.134 344.41 427.756 341.153 426.42 335.16L423.709 321.711C422.7 320.508 422.096 319.416 421.898 318.433C421.576 316.837 422.237 315.202 423.881 313.528C425.524 311.855 427.206 310.845 428.926 310.498C431.505 309.978 434.203 310.681 437.019 312.605C439.835 314.53 441.516 316.843 442.06 319.545C442.655 322.493 442.782 325.503 442.443 328.575C442.103 331.647 442.304 334.706 443.046 337.751L443.195 338.488C452.973 337.54 458.357 339.522 459.347 344.435Z"
      fill="black"/>
      <path d="M484.28 307.392C484.825 310.094 484.35 312.491 482.854 314.582C481.358 316.672 479.259 317.99 476.557 318.535C473.364 319.179 470.163 318.674 466.954 317.02C463.745 315.366 461.818 312.943 461.174 309.749C460.63 307.047 461.136 304.645 462.693 302.541C464.25 300.438 466.441 299.102 469.266 298.532C472.582 297.864 475.747 298.344 478.759 299.974C481.772 301.603 483.612 304.076 484.28 307.392ZM487.821 333.519C488.267 335.729 488.407 338.96 488.241 343.212C488.076 347.463 488.216 350.694 488.662 352.904L496.312 390.856C496.782 393.189 498.2 396.738 500.566 401.501C499.293 404.697 497.551 406.518 495.341 406.964C487.603 408.524 482.586 405.509 480.289 397.92C476.164 383.797 473.372 373.113 471.911 365.867C469.46 353.707 467.897 343.414 467.22 334.987C466.974 334.398 466.789 333.796 466.665 333.182C466.219 330.971 467.716 329.519 471.155 328.826C474.225 328.207 477.42 328.202 480.738 328.812C484.94 329.37 487.301 330.939 487.821 333.519Z"
      fill="black"/>
      <path d="M571.614 368.775C572.382 372.582 570.399 377.647 565.666 383.969C561.474 389.799 557.444 393.743 553.577 395.8C549.71 397.858 545.934 399.258 542.249 400.001C532.547 401.956 524.344 400.415 517.64 395.375C510.937 390.336 506.607 382.965 504.651 373.262C502.745 363.805 503.134 352.735 505.818 340.052C509.013 324.838 514.603 316.426 522.586 314.816C527.008 313.925 532.697 314.568 539.654 316.744C547.054 319.215 551.69 322.242 553.563 325.827C555.214 328.945 556.46 332.592 557.302 336.768C558.07 340.575 558.138 345.035 557.507 350.147C556.779 356.684 554.942 360.249 551.994 360.843C549.906 361.264 547.817 361.046 545.728 360.19C543.244 359.284 541.805 357.849 541.409 355.884C541.384 355.761 541.652 354.237 542.213 351.312C542.579 349.96 542.205 346.521 541.091 340.994C540.175 336.45 539.397 333.539 538.756 332.262C537.252 328.603 535.149 327.046 532.447 327.591C526.428 328.804 522.813 334.965 521.602 346.073C520.705 354.306 521.049 362.352 522.633 370.213C525.282 383.354 530.783 389.084 539.134 387.4C542.451 386.732 545.911 384.245 549.517 379.939C552.803 375.954 554.911 372.142 555.839 368.504C557.012 364.178 559.011 361.73 561.836 361.16C563.678 360.789 565.675 361.505 567.828 363.307C569.981 365.11 571.243 366.933 571.614 368.775Z"
      fill="black"/>
      <path d="M658.576 378.853C654.602 383.233 651.264 385.695 648.562 386.239C645 386.957 639.099 384.313 630.858 378.305C625.029 374.112 619.248 369.845 613.516 365.505C610.17 362.856 604.968 359.24 597.909 354.656L597.431 355.136L600.699 371.348C600.897 372.33 601.587 373.693 602.769 375.436C603.951 377.179 604.653 378.603 604.876 379.708C605.223 381.428 604.636 383.112 603.115 384.76C601.594 386.409 599.912 387.419 598.07 387.79C594.876 388.434 592.025 387.922 589.517 386.255C587.008 384.588 585.431 382.158 584.788 378.964L579.886 354.646C579.589 353.172 579.352 350.887 579.175 347.792C578.998 344.696 578.762 342.411 578.465 340.937L568.475 291.38C566.965 283.887 565.199 277.981 563.178 273.659C562.265 271.67 561.698 270.123 561.475 269.018C561.005 266.684 561.996 264.312 564.45 261.9C566.56 259.685 568.843 258.33 571.299 257.835C573.141 257.464 575.28 257.768 577.714 258.747C580.148 259.726 581.538 261.075 581.885 262.795C581.984 263.286 581.962 265.08 581.819 268.176C581.676 271.272 582.224 275.891 583.462 282.032C583.858 283.997 586.979 300.431 592.824 331.333C593.217 330.742 598.623 323.326 609.045 309.083C617.627 297.129 622.839 290.966 624.681 290.594C631.191 289.282 635.127 292.642 636.491 300.675L636.862 302.518C632.2 306.653 626.361 312.878 619.346 321.194C610.442 331.552 606.263 338.082 606.808 340.784C606.857 341.03 610.953 344.23 619.095 350.385C626.795 356.246 631.617 359.875 633.56 361.273C642.489 367.525 650.431 371.42 657.387 372.958L658.576 378.853Z"
      fill="black"/>
      <path d="M706.54 289.623C706.672 295.987 706.854 302.277 707.084 308.493C707.292 315.864 707.903 322.067 708.918 327.103L719.019 377.214C720.851 386.302 719.64 393.768 715.386 399.61C711.131 405.452 704.46 409.289 695.371 411.121C689.476 412.309 682.657 412.086 674.914 410.452C665.722 408.598 660.618 405.154 659.603 400.118C659.256 398.399 659.672 396.813 660.849 395.362C662.026 393.91 663.475 393.011 665.194 392.664C666.299 392.442 669.274 393.567 674.119 396.042C678.963 398.516 684.087 399.209 689.491 398.119C696.369 396.733 700.467 393.287 701.786 387.781C702.812 383.995 702.558 378.295 701.023 370.68C700.454 367.855 699.922 365.534 699.428 363.717C695.919 367.236 691.647 369.503 686.612 370.518C677.4 372.374 669.608 370.494 663.236 364.877C657.478 359.775 653.659 352.557 651.777 343.222C651.579 342.24 649.074 326.641 644.261 296.425C647.624 294.086 650.411 292.693 652.621 292.247C655.078 291.752 658.998 292.496 664.382 294.478C662.92 302.441 664.417 317.477 668.873 339.584C671.72 353.709 676.706 360.053 683.829 358.617C689.111 357.552 692.272 352.314 693.315 342.901C694.115 336.094 693.822 329.251 692.436 322.373L687.905 299.897C687.93 300.02 687.337 298.031 686.127 293.929C690.668 290.458 694.166 288.474 696.622 287.979C699.202 287.459 702.507 288.007 706.54 289.623Z"
      fill="black"/>
      <path d="M446.776 537.917C447.049 539.268 446.843 541.099 446.158 543.409C445.352 546.384 444.888 548.203 444.766 548.866C443.457 560.761 443.521 570.27 444.956 577.393L455.062 630.379C456.028 635.808 455.914 641.582 454.719 647.702C453.085 655.445 449.995 659.774 445.451 660.69C438.696 662.052 430.863 657.751 421.953 647.789C415.48 640.403 408.301 629.835 400.418 616.087C395.662 607.077 390.844 598.079 385.966 589.093C387.595 610.492 389.128 624.753 390.564 631.877C393.733 647.598 396.504 656.433 398.878 658.383C401.252 660.333 402.551 661.861 402.774 662.966C403.244 665.3 402.431 667.604 400.333 669.88C398.236 672.157 395.959 673.542 393.502 674.037C390.064 674.73 386.508 671.677 382.837 664.876C379.979 659.573 378.079 654.588 377.138 649.921C376.717 647.833 376.154 644.719 375.447 640.58C374.741 636.441 374.177 633.327 373.756 631.239C372.741 626.203 371.845 618.588 371.068 608.392C370.291 598.196 369.394 590.58 368.379 585.544L363.849 563.068C363.799 562.822 363.633 562.473 363.35 562.018C363.066 561.564 362.9 561.214 362.851 560.969C362.355 558.512 363.605 556.152 366.599 553.886C369.029 551.991 371.595 550.771 374.297 550.226C380.561 548.963 385.452 550.086 388.971 553.595C389.98 554.797 391.225 557.486 392.706 561.661C393.669 564.534 394.644 567.469 395.631 570.465C398.863 578.888 405.554 592.11 415.704 610.13C427.777 631.342 435.655 641.576 439.34 640.833C440.691 640.561 441.019 638.705 440.326 635.266C440.128 634.284 439.653 632.718 438.9 630.569C438.147 628.42 437.647 626.732 437.4 625.504L429.178 575.206C428.037 567.64 427.841 560.01 428.591 552.318C429.729 541.481 433.001 535.517 438.405 534.428C440.124 534.081 442.742 534.704 446.258 536.296C446.505 536.885 446.677 537.425 446.776 537.917Z"
      fill="black"/>
      <path d="M542.267 606.474C544.495 617.528 543.638 627.542 539.695 636.517C535.116 646.77 527.545 652.961 516.982 655.09C506.174 657.269 497.264 655.231 490.252 648.975C483.904 643.481 479.604 635.146 477.351 623.969C475.123 612.915 475.782 601.918 479.328 590.979C483.363 578.023 490.477 570.518 500.671 568.464C503.864 567.82 508.141 568.428 513.5 570.287C528.915 575.743 538.504 587.805 542.267 606.474ZM525.98 609.374C522.192 590.582 515.754 582.102 506.665 583.934C500.156 585.247 496.048 590.229 494.341 598.88C493.097 605.394 493.243 612.458 494.778 620.073C498.071 636.408 504.569 643.597 514.272 641.641C520.535 640.379 524.522 636.06 526.231 628.686C527.524 623.058 527.441 616.62 525.98 609.374Z"
      fill="black"/>
      <path d="M585.293 566.935C585.961 570.251 581.335 573.612 571.413 577.018C571.712 579.77 572.827 585.935 574.758 595.515L577.209 607.674C577.704 610.131 578.834 613.674 580.598 618.303C582.362 622.932 583.479 626.413 583.949 628.747C584.345 630.712 583.715 632.66 582.06 634.591C580.404 636.523 578.594 637.686 576.629 638.083C573.558 638.701 570.447 636.581 567.294 631.72C564.88 627.989 563.29 624.22 562.522 620.412L554.65 581.356C548.827 581.635 545.46 581.738 544.551 581.666C541.16 581.327 539.278 580.236 538.907 578.394C538.808 577.903 538.819 577.325 538.941 576.662C541.219 571.474 544.322 568.484 548.253 567.691C548.498 567.642 548.867 567.567 549.358 567.468C549.874 567.492 550.255 567.479 550.501 567.43C553.08 566.91 553.701 563.653 552.365 557.66L549.655 544.211C548.645 543.009 548.042 541.916 547.844 540.934C547.522 539.337 548.183 537.702 549.826 536.029C551.47 534.355 553.152 533.345 554.871 532.999C557.451 532.479 560.148 533.181 562.965 535.106C565.781 537.03 567.462 539.344 568.006 542.046C568.6 544.993 568.728 548.003 568.388 551.075C568.049 554.147 568.25 557.206 568.992 560.252L569.141 560.989C578.919 560.04 584.303 562.022 585.293 566.935Z"
      fill="black"/>
      <path d="M660.169 603.605C661.407 609.746 658.196 615.378 650.538 620.5C644.573 624.515 638.029 627.24 630.905 628.676C611.991 632.488 600.367 623.648 596.035 602.154C594.252 593.311 594.421 583.052 596.541 571.378C599.149 557.049 604.198 549.129 611.69 547.619C618.446 546.257 626.329 547.799 635.341 552.245C644.354 556.691 649.516 562.169 650.828 568.679C652.462 576.785 650.138 583.963 643.858 590.214C638.337 595.8 631.156 599.484 622.313 601.267C620.593 601.613 617.619 601.126 613.391 599.806C616.234 611.375 620.849 616.516 627.236 615.228C632.64 614.139 637.642 611.533 642.243 607.41C646.844 603.288 649.882 601.078 651.355 600.781C656.637 599.716 659.574 600.658 660.169 603.605ZM633.069 572.834C632.45 569.763 630.972 567.026 628.634 564.621C626.296 562.217 623.653 561.312 620.705 561.906C616.652 562.723 613.879 565.135 612.386 569.142C611.163 572.584 610.972 576.393 611.814 580.569C612.284 582.902 613.466 584.645 615.36 585.797C617.254 586.949 619.429 587.278 621.885 586.783C630.851 584.975 634.579 580.326 633.069 572.834Z"/>
    
      <path d="M690.833 187.516C692.238 185.111 698.52 186.143 704.863 189.822L704.863 189.822C711.207 193.5 715.211 198.431 713.805 200.836L687 246.708C685.594 249.113 679.313 248.081 672.969 244.402L672.969 244.402C666.625 240.724 662.622 235.792 664.027 233.388L690.833 187.516Z" fill-rule="nonzero" opacity="1" stroke="none" vectornator:layerName="Rectangle 3"
      fill="black"/>
      <path d="M691.793 185.91C693.198 183.505 699.48 184.538 705.824 188.216L705.824 188.216C712.167 191.895 716.171 196.826 714.766 199.231L687.96 245.103C686.555 247.508 680.273 246.475 673.929 242.797L673.929 242.797C667.585 239.119 663.582 234.187 664.987 231.782L691.793 185.91Z" fill-rule="nonzero" opacity="1" stroke="none" vectornator:layerName="Rectangle 1"
      fill="black"/>
      <path d="M704.017 137.895C710.947 125.837 726.444 121.654 738.629 128.551L738.629 128.551C750.815 135.447 755.075 150.812 748.144 162.87L734.895 185.92C727.965 197.977 712.468 202.16 700.283 195.264L700.283 195.264C688.097 188.367 683.837 173.002 690.767 160.945L704.017 137.895Z" fill-rule="nonzero" opacity="1" stroke="none" vectornator:layerName="Rectangle 2"
      fill="black"/>
      <path d="M660.316 158.997C667.974 145.291 695.097 145.688 720.896 159.884C746.696 174.08 761.403 196.699 753.745 210.405C746.087 224.11 718.964 223.713 693.165 209.517C667.365 195.321 652.658 172.703 660.316 158.997Z" fill-rule="nonzero" opacity="1" stroke="none" vectornator:layerName="Oval 1"/>


    </mask>
  </defs>
  <clipPath id="ArtboardFrame">
    <rect height="1024" width="1024" x="0" y="0"/>
  </clipPath>
  <g clip-path="url(#ArtboardFrame)" id="Layer-1" vectornator:layerName="Layer 1">
    <!-- <path d="M-0.0191587-14.0362L1023.51-14.0362L1023.51 1028.09L-0.0191587 1028.09L-0.0191587-14.0362Z" fill="#000000" fill-rule="nonzero" opacity="1" stroke="none" vectornator:layerName="Rectangle 1"/> -->
  </g>
  <g id="Layer-3" vectornator:layerName="Layer 3">
    <path d="M743.875 128.969C482.47 179.344 482.467 179.344 221.062 229.719C279.4 532.578 279.381 532.578 337.719 835.438C487.149 807.599 558.657 794.294 636.594 779.781C651.48 769.988 657.482 765.041 664 756.125C664.712 755.151 665.711 754.574 666.781 754.25C668.115 752.287 668.945 750.997 670.531 748.688C670.676 748.477 670.668 748.491 670.812 748.281C676.091 740.597 678.576 736.928 681.469 732.5C682.127 731.493 682.866 730.445 683.812 729.156C684.306 728.484 685.993 726.179 686.219 725.875C686.296 725.771 686.331 725.727 686.406 725.625C687.711 721.765 689.051 717.55 690.844 711.625C692.711 705.453 693.297 703.484 694.281 700.406C694.664 699.209 694.819 698.77 695.75 696C697.148 691.836 697.828 689.644 698.406 687.25C698.643 686.271 698.849 685.36 699 684.469C699.139 683.644 699.485 682.921 699.938 682.281C700.373 679.011 700.877 675.92 701.219 672.375C701.38 670.704 701.814 669.122 702.5 666.781C702.464 662.447 702.371 658.558 702.156 655.031C702.098 654.067 702.103 653.314 702.156 650.375C702.179 649.103 702.184 648.343 702.188 647.531C702.189 647.099 702.16 646.886 702.156 646.5C702.011 644.838 701.846 643.058 701.719 641.5C701.567 640.99 701.497 640.488 701.5 639.969C701.432 639.804 701.371 639.633 701.312 639.469C701.196 639.143 701.102 638.844 701.031 638.469C700.835 637.422 700.835 636.398 701.406 635.125C702.431 632.838 704.432 631.713 706.594 631.469C707.469 631.37 708.279 631.454 709.156 631.594C709.792 631.501 710.602 631.488 711.312 631.438C711.395 631.426 711.45 631.417 711.531 631.406C712.213 631.312 712.822 631.245 713.406 631.188C714 631.129 714.496 631.143 715.031 631.125C715.263 631.088 715.547 631.026 715.75 631C716.151 630.949 716.515 630.914 716.875 630.906C717.208 630.899 717.538 630.918 717.906 630.969C718.173 630.886 718.425 630.791 718.719 630.719C719.394 630.553 720.217 630.389 721.281 630.219C721.994 630.105 728.31 629.188 728.312 629.188C734.509 627.54 740.86 626.295 750.906 624.562C752.495 624.289 754.122 623.85 756.688 623.062C756.799 623.028 756.899 623.014 757.062 622.969C757.065 622.968 757.121 622.939 757.125 622.938C757.279 622.879 758.506 622.435 759.188 622.188C759.206 622.179 759.212 622.174 759.25 622.156C759.289 622.138 759.336 622.143 759.375 622.125C759.892 621.89 760.377 621.723 761.031 621.625C761.069 621.609 761.118 621.609 761.156 621.594C761.864 621.301 762.667 621.034 763.375 620.719C768.951 618.231 772.782 616.739 776.656 615.562C776.758 615.509 776.821 615.463 776.938 615.406C778.26 614.758 782.493 612.81 782.625 612.75C786.024 611.21 786.074 611.171 786.969 610.75C797.561 604.71 804.583 600.128 811.094 594.344C811.293 594.167 814.004 591.823 814.812 591.094C816.2 589.842 817.262 588.767 818.125 587.812C818.403 587.505 818.585 587.273 818.812 587C818.82 586.978 818.836 586.959 818.844 586.938C819.066 586.301 819.401 585.694 819.875 585.156C824.413 580.009 827.168 574.939 827.906 569.844C827.974 569.374 828.059 569.063 828.281 568.281C828.28 568.287 828.773 566.519 828.812 566.375C828.836 566.289 828.824 566.267 828.844 566.188C828.842 566.167 828.847 566.146 828.844 566.125C828.841 566.093 828.848 566.063 828.844 566.031C828.835 565.925 828.819 565.828 828.812 565.719C828.808 565.612 828.878 565.511 828.875 565.406C828.868 564.995 828.826 564.582 828.906 564.125C828.976 563.729 829.141 563.372 829.281 563C829.309 562.925 829.306 562.853 829.312 562.781C803.974 434.133 786.595 345.867 743.875 128.969Z" fill="#ffffff" fill-rule="nonzero" opacity="1" stroke="none" vectornator:layerName="Curve 1" mask="url(#Mask)"/>
    <g fill="#000002" opacity="1" stroke="none" vectornator:layerName="Text 1">
      <!-- <path d="M413.549 403.512C415.059 411.004 411.863 417.656 403.96 423.467C397.75 428.169 390.408 431.375 381.934 433.083C374.196 434.643 364.761 434.755 353.628 433.42C339.84 431.598 332.353 427.74 331.164 421.844C330.719 419.634 331.133 417.569 332.408 415.651C333.683 413.732 335.426 412.55 337.636 412.104C340.953 411.436 344.295 412.168 347.665 414.301C353.272 417.388 356.297 419.079 356.739 419.373C361.533 420.963 369.518 420.632 380.695 418.379C390.644 416.373 395.16 413.098 394.244 408.554C393.476 404.747 387.745 400.406 377.049 395.533C369.697 392.669 362.346 389.805 354.995 386.941C345.504 382.975 338.348 378.858 333.525 374.59C327.153 368.973 323.1 361.865 321.367 353.268C319.188 342.46 320.561 332.15 325.485 322.338C330.727 311.568 338.629 305.119 349.192 302.989C358.281 301.157 366.458 302.097 373.725 305.809C380.991 309.52 386.388 315.686 389.915 324.305C390.976 327.67 392.741 332.618 395.208 339.15C396.095 341.017 396.638 342.441 396.836 343.423C397.727 347.845 397.745 351.74 396.89 355.107C395.89 359.654 393.424 362.324 389.494 363.116C387.283 363.562 384.96 362.976 382.525 361.358C380.09 359.74 378.65 357.825 378.204 355.615C377.883 354.018 377.775 351.579 377.88 348.299C377.986 345.018 377.878 342.58 377.556 340.983C374.214 324.402 367.016 317.226 355.962 319.454C349.821 320.692 345.188 324.342 342.065 330.404C338.941 336.465 338.01 342.628 339.273 348.892C341.056 357.735 348.07 365.268 360.316 371.49C371.331 376.044 382.407 380.585 393.545 385.114C405.495 390.502 412.163 396.634 413.549 403.512Z"/>
      <path d="M459.347 344.435C460.016 347.751 455.389 351.112 445.467 354.518C445.766 357.269 446.881 363.435 448.812 373.015L451.263 385.174C451.759 387.631 452.888 391.173 454.652 395.802C456.416 400.431 457.533 403.913 458.003 406.246C458.399 408.211 457.77 410.16 456.114 412.091C454.458 414.022 452.648 415.186 450.683 415.582C447.612 416.201 444.501 414.08 441.348 409.22C438.935 405.489 437.344 401.72 436.577 397.912L428.704 358.855C422.881 359.134 419.515 359.238 418.605 359.165C415.214 358.827 413.333 357.736 412.961 355.894C412.862 355.402 412.874 354.825 412.996 354.161C415.273 348.973 418.377 345.983 422.307 345.191C422.552 345.141 422.921 345.067 423.412 344.968C423.928 344.992 424.309 344.979 424.555 344.93C427.134 344.41 427.756 341.153 426.42 335.16L423.709 321.711C422.7 320.508 422.096 319.416 421.898 318.433C421.576 316.837 422.237 315.202 423.881 313.528C425.524 311.855 427.206 310.845 428.926 310.498C431.505 309.978 434.203 310.681 437.019 312.605C439.835 314.53 441.516 316.843 442.06 319.545C442.655 322.493 442.782 325.503 442.443 328.575C442.103 331.647 442.304 334.706 443.046 337.751L443.195 338.488C452.973 337.54 458.357 339.522 459.347 344.435Z"/>
      <path d="M484.28 307.392C484.825 310.094 484.35 312.491 482.854 314.582C481.358 316.672 479.259 317.99 476.557 318.535C473.364 319.179 470.163 318.674 466.954 317.02C463.745 315.366 461.818 312.943 461.174 309.749C460.63 307.047 461.136 304.645 462.693 302.541C464.25 300.438 466.441 299.102 469.266 298.532C472.582 297.864 475.747 298.344 478.759 299.974C481.772 301.603 483.612 304.076 484.28 307.392ZM487.821 333.519C488.267 335.729 488.407 338.96 488.241 343.212C488.076 347.463 488.216 350.694 488.662 352.904L496.312 390.856C496.782 393.189 498.2 396.738 500.566 401.501C499.293 404.697 497.551 406.518 495.341 406.964C487.603 408.524 482.586 405.509 480.289 397.92C476.164 383.797 473.372 373.113 471.911 365.867C469.46 353.707 467.897 343.414 467.22 334.987C466.974 334.398 466.789 333.796 466.665 333.182C466.219 330.971 467.716 329.519 471.155 328.826C474.225 328.207 477.42 328.202 480.738 328.812C484.94 329.37 487.301 330.939 487.821 333.519Z"/>
      <path d="M571.614 368.775C572.382 372.582 570.399 377.647 565.666 383.969C561.474 389.799 557.444 393.743 553.577 395.8C549.71 397.858 545.934 399.258 542.249 400.001C532.547 401.956 524.344 400.415 517.64 395.375C510.937 390.336 506.607 382.965 504.651 373.262C502.745 363.805 503.134 352.735 505.818 340.052C509.013 324.838 514.603 316.426 522.586 314.816C527.008 313.925 532.697 314.568 539.654 316.744C547.054 319.215 551.69 322.242 553.563 325.827C555.214 328.945 556.46 332.592 557.302 336.768C558.07 340.575 558.138 345.035 557.507 350.147C556.779 356.684 554.942 360.249 551.994 360.843C549.906 361.264 547.817 361.046 545.728 360.19C543.244 359.284 541.805 357.849 541.409 355.884C541.384 355.761 541.652 354.237 542.213 351.312C542.579 349.96 542.205 346.521 541.091 340.994C540.175 336.45 539.397 333.539 538.756 332.262C537.252 328.603 535.149 327.046 532.447 327.591C526.428 328.804 522.813 334.965 521.602 346.073C520.705 354.306 521.049 362.352 522.633 370.213C525.282 383.354 530.783 389.084 539.134 387.4C542.451 386.732 545.911 384.245 549.517 379.939C552.803 375.954 554.911 372.142 555.839 368.504C557.012 364.178 559.011 361.73 561.836 361.16C563.678 360.789 565.675 361.505 567.828 363.307C569.981 365.11 571.243 366.933 571.614 368.775Z"/>
      <path d="M658.576 378.853C654.602 383.233 651.264 385.695 648.562 386.239C645 386.957 639.099 384.313 630.858 378.305C625.029 374.112 619.248 369.845 613.516 365.505C610.17 362.856 604.968 359.24 597.909 354.656L597.431 355.136L600.699 371.348C600.897 372.33 601.587 373.693 602.769 375.436C603.951 377.179 604.653 378.603 604.876 379.708C605.223 381.428 604.636 383.112 603.115 384.76C601.594 386.409 599.912 387.419 598.07 387.79C594.876 388.434 592.025 387.922 589.517 386.255C587.008 384.588 585.431 382.158 584.788 378.964L579.886 354.646C579.589 353.172 579.352 350.887 579.175 347.792C578.998 344.696 578.762 342.411 578.465 340.937L568.475 291.38C566.965 283.887 565.199 277.981 563.178 273.659C562.265 271.67 561.698 270.123 561.475 269.018C561.005 266.684 561.996 264.312 564.45 261.9C566.56 259.685 568.843 258.33 571.299 257.835C573.141 257.464 575.28 257.768 577.714 258.747C580.148 259.726 581.538 261.075 581.885 262.795C581.984 263.286 581.962 265.08 581.819 268.176C581.676 271.272 582.224 275.891 583.462 282.032C583.858 283.997 586.979 300.431 592.824 331.333C593.217 330.742 598.623 323.326 609.045 309.083C617.627 297.129 622.839 290.966 624.681 290.594C631.191 289.282 635.127 292.642 636.491 300.675L636.862 302.518C632.2 306.653 626.361 312.878 619.346 321.194C610.442 331.552 606.263 338.082 606.808 340.784C606.857 341.03 610.953 344.23 619.095 350.385C626.795 356.246 631.617 359.875 633.56 361.273C642.489 367.525 650.431 371.42 657.387 372.958L658.576 378.853Z"/>
      <path d="M706.54 289.623C706.672 295.987 706.854 302.277 707.084 308.493C707.292 315.864 707.903 322.067 708.918 327.103L719.019 377.214C720.851 386.302 719.64 393.768 715.386 399.61C711.131 405.452 704.46 409.289 695.371 411.121C689.476 412.309 682.657 412.086 674.914 410.452C665.722 408.598 660.618 405.154 659.603 400.118C659.256 398.399 659.672 396.813 660.849 395.362C662.026 393.91 663.475 393.011 665.194 392.664C666.299 392.442 669.274 393.567 674.119 396.042C678.963 398.516 684.087 399.209 689.491 398.119C696.369 396.733 700.467 393.287 701.786 387.781C702.812 383.995 702.558 378.295 701.023 370.68C700.454 367.855 699.922 365.534 699.428 363.717C695.919 367.236 691.647 369.503 686.612 370.518C677.4 372.374 669.608 370.494 663.236 364.877C657.478 359.775 653.659 352.557 651.777 343.222C651.579 342.24 649.074 326.641 644.261 296.425C647.624 294.086 650.411 292.693 652.621 292.247C655.078 291.752 658.998 292.496 664.382 294.478C662.92 302.441 664.417 317.477 668.873 339.584C671.72 353.709 676.706 360.053 683.829 358.617C689.111 357.552 692.272 352.314 693.315 342.901C694.115 336.094 693.822 329.251 692.436 322.373L687.905 299.897C687.93 300.02 687.337 298.031 686.127 293.929C690.668 290.458 694.166 288.474 696.622 287.979C699.202 287.459 702.507 288.007 706.54 289.623Z"/>
      <path d="M446.776 537.917C447.049 539.268 446.843 541.099 446.158 543.409C445.352 546.384 444.888 548.203 444.766 548.866C443.457 560.761 443.521 570.27 444.956 577.393L455.062 630.379C456.028 635.808 455.914 641.582 454.719 647.702C453.085 655.445 449.995 659.774 445.451 660.69C438.696 662.052 430.863 657.751 421.953 647.789C415.48 640.403 408.301 629.835 400.418 616.087C395.662 607.077 390.844 598.079 385.966 589.093C387.595 610.492 389.128 624.753 390.564 631.877C393.733 647.598 396.504 656.433 398.878 658.383C401.252 660.333 402.551 661.861 402.774 662.966C403.244 665.3 402.431 667.604 400.333 669.88C398.236 672.157 395.959 673.542 393.502 674.037C390.064 674.73 386.508 671.677 382.837 664.876C379.979 659.573 378.079 654.588 377.138 649.921C376.717 647.833 376.154 644.719 375.447 640.58C374.741 636.441 374.177 633.327 373.756 631.239C372.741 626.203 371.845 618.588 371.068 608.392C370.291 598.196 369.394 590.58 368.379 585.544L363.849 563.068C363.799 562.822 363.633 562.473 363.35 562.018C363.066 561.564 362.9 561.214 362.851 560.969C362.355 558.512 363.605 556.152 366.599 553.886C369.029 551.991 371.595 550.771 374.297 550.226C380.561 548.963 385.452 550.086 388.971 553.595C389.98 554.797 391.225 557.486 392.706 561.661C393.669 564.534 394.644 567.469 395.631 570.465C398.863 578.888 405.554 592.11 415.704 610.13C427.777 631.342 435.655 641.576 439.34 640.833C440.691 640.561 441.019 638.705 440.326 635.266C440.128 634.284 439.653 632.718 438.9 630.569C438.147 628.42 437.647 626.732 437.4 625.504L429.178 575.206C428.037 567.64 427.841 560.01 428.591 552.318C429.729 541.481 433.001 535.517 438.405 534.428C440.124 534.081 442.742 534.704 446.258 536.296C446.505 536.885 446.677 537.425 446.776 537.917Z"/>
      <path d="M542.267 606.474C544.495 617.528 543.638 627.542 539.695 636.517C535.116 646.77 527.545 652.961 516.982 655.09C506.174 657.269 497.264 655.231 490.252 648.975C483.904 643.481 479.604 635.146 477.351 623.969C475.123 612.915 475.782 601.918 479.328 590.979C483.363 578.023 490.477 570.518 500.671 568.464C503.864 567.82 508.141 568.428 513.5 570.287C528.915 575.743 538.504 587.805 542.267 606.474ZM525.98 609.374C522.192 590.582 515.754 582.102 506.665 583.934C500.156 585.247 496.048 590.229 494.341 598.88C493.097 605.394 493.243 612.458 494.778 620.073C498.071 636.408 504.569 643.597 514.272 641.641C520.535 640.379 524.522 636.06 526.231 628.686C527.524 623.058 527.441 616.62 525.98 609.374Z"/>
      <path d="M585.293 566.935C585.961 570.251 581.335 573.612 571.413 577.018C571.712 579.77 572.827 585.935 574.758 595.515L577.209 607.674C577.704 610.131 578.834 613.674 580.598 618.303C582.362 622.932 583.479 626.413 583.949 628.747C584.345 630.712 583.715 632.66 582.06 634.591C580.404 636.523 578.594 637.686 576.629 638.083C573.558 638.701 570.447 636.581 567.294 631.72C564.88 627.989 563.29 624.22 562.522 620.412L554.65 581.356C548.827 581.635 545.46 581.738 544.551 581.666C541.16 581.327 539.278 580.236 538.907 578.394C538.808 577.903 538.819 577.325 538.941 576.662C541.219 571.474 544.322 568.484 548.253 567.691C548.498 567.642 548.867 567.567 549.358 567.468C549.874 567.492 550.255 567.479 550.501 567.43C553.08 566.91 553.701 563.653 552.365 557.66L549.655 544.211C548.645 543.009 548.042 541.916 547.844 540.934C547.522 539.337 548.183 537.702 549.826 536.029C551.47 534.355 553.152 533.345 554.871 532.999C557.451 532.479 560.148 533.181 562.965 535.106C565.781 537.03 567.462 539.344 568.006 542.046C568.6 544.993 568.728 548.003 568.388 551.075C568.049 554.147 568.25 557.206 568.992 560.252L569.141 560.989C578.919 560.04 584.303 562.022 585.293 566.935Z"/>
      <path d="M660.169 603.605C661.407 609.746 658.196 615.378 650.538 620.5C644.573 624.515 638.029 627.24 630.905 628.676C611.991 632.488 600.367 623.648 596.035 602.154C594.252 593.311 594.421 583.052 596.541 571.378C599.149 557.049 604.198 549.129 611.69 547.619C618.446 546.257 626.329 547.799 635.341 552.245C644.354 556.691 649.516 562.169 650.828 568.679C652.462 576.785 650.138 583.963 643.858 590.214C638.337 595.8 631.156 599.484 622.313 601.267C620.593 601.613 617.619 601.126 613.391 599.806C616.234 611.375 620.849 616.516 627.236 615.228C632.64 614.139 637.642 611.533 642.243 607.41C646.844 603.288 649.882 601.078 651.355 600.781C656.637 599.716 659.574 600.658 660.169 603.605ZM633.069 572.834C632.45 569.763 630.972 567.026 628.634 564.621C626.296 562.217 623.653 561.312 620.705 561.906C616.652 562.723 613.879 565.135 612.386 569.142C611.163 572.584 610.972 576.393 611.814 580.569C612.284 582.902 613.466 584.645 615.36 585.797C617.254 586.949 619.429 587.278 621.885 586.783C630.851 584.975 634.579 580.326 633.069 572.834Z"/> -->
    </g>
    <path d="M824.404 563.194C827.719 578.446 806.706 600.056 782.105 611.749C748.335 627.801 698.069 635.906 698.069 635.906C698.069 635.906 704.249 643.821 690.791 709.728C684.689 739.615 667.22 767.722 635.816 774.668" fill="none" opacity="1" stroke="#ffffff" stroke-linecap="butt" stroke-linejoin="round" stroke-width="10" vectornator:layerName="Curve 2"/>
    <path d="M826.4 566.742C829.716 581.994 813.071 614.311 788.47 626.004C754.7 642.057 717.619 648.214 717.619 648.214C717.619 648.214 718.905 645.148 705.448 711.055C699.345 740.941 666.659 769.881 635.255 776.827" fill="none" opacity="1" stroke="#ffffff" stroke-linecap="butt" stroke-linejoin="round" stroke-width="5.12383" vectornator:layerName="Curve 3"/>
    <path d="M826.458 563.45C829.774 578.702 824.734 618.558 790.963 640.28C759.516 660.507 731.643 659.542 731.643 659.542C731.643 659.542 731.327 664.083 720.153 710.592C708.296 759.947 648.975 773.002 638.883 775.693" fill="none" opacity="1" stroke="#ffffff" stroke-linecap="butt" stroke-linejoin="round" stroke-width="5.12383" vectornator:layerName="Curve 4"/>
    <path d="M827.269 563.653C830.585 578.905 825.968 641.922 785.261 659.907C751.06 675.017 743.294 673.449 743.294 673.449C743.294 673.449 745.588 672.235 728.951 717.082C706.519 777.551 642.218 774.368 632.902 777.344" fill="none" opacity="0" stroke="#ffffff" stroke-linecap="butt" stroke-linejoin="round" stroke-width="5.12383" vectornator:layerName="Curve 5"/>
  </g>
  <g id="Layer-4" vectornator:layerName="Layer 4">
    <!-- <path d="M690.833 187.516C692.238 185.111 698.52 186.143 704.863 189.822L704.863 189.822C711.207 193.5 715.211 198.431 713.805 200.836L687 246.708C685.594 249.113 679.313 248.081 672.969 244.402L672.969 244.402C666.625 240.724 662.622 235.792 664.027 233.388L690.833 187.516Z" fill="#000000" fill-rule="nonzero" opacity="1" stroke="none" vectornator:layerName="Rectangle 3"/> -->
    <!-- <path d="M691.793 185.91C693.198 183.505 699.48 184.538 705.824 188.216L705.824 188.216C712.167 191.895 716.171 196.826 714.766 199.231L687.96 245.103C686.555 247.508 680.273 246.475 673.929 242.797L673.929 242.797C667.585 239.119 663.582 234.187 664.987 231.782L691.793 185.91Z" fill="#000000" fill-rule="nonzero" opacity="1" stroke="none" vectornator:layerName="Rectangle 1"/> -->
    <!-- <path d="M704.017 137.895C710.947 125.837 726.444 121.654 738.629 128.551L738.629 128.551C750.815 135.447 755.075 150.812 748.144 162.87L734.895 185.92C727.965 197.977 712.468 202.16 700.283 195.264L700.283 195.264C688.097 188.367 683.837 173.002 690.767 160.945L704.017 137.895Z" fill="#000000" fill-rule="nonzero" opacity="1" stroke="none" vectornator:layerName="Rectangle 2"/> -->
    <!-- <path d="M660.316 158.997C667.974 145.291 695.097 145.688 720.896 159.884C746.696 174.08 761.403 196.699 753.745 210.405C746.087 224.11 718.964 223.713 693.165 209.517C667.365 195.321 652.658 172.703 660.316 158.997Z" fill="#000000" fill-rule="nonzero" opacity="1" stroke="none" vectornator:layerName="Oval 1"/> -->
    <path d="M703.239 113.836C708.439 104.363 728.099 105.032 747.151 115.331C766.203 125.631 777.432 141.661 772.232 151.134C767.032 160.608 747.372 159.939 728.32 149.639C709.268 139.34 698.039 123.31 703.239 113.836Z" fill="#ffffff" fill-rule="nonzero" opacity="1" stroke="none" vectornator:layerName="Oval 2"/>
  </g>
  <!-- <rect x="412" y="412" width="500" height="500" fill="red" mask="url(#Mask)" /> -->
</svg>
